<svg xmlns="http://www.w3.org/2000/svg" xmlns:xlink="http://www.w3.org/1999/xlink" width="9.5" height="14.929" viewBox="0 0 9.5 14.929"><defs><style>.a,.c{fill:#2e3361;}.a{clip-rule:evenodd;}.b{clip-path:url(#a);}</style><clipPath id="a"><path class="a" d="M9.227-14.684A.943.943,0,0,1,9.168-13.3L2.559-7.535,9.168-1.768A.943.943,0,0,1,9.227-.386,1.078,1.078,0,0,1,7.765-.33L.334-6.816A.955.955,0,0,1,0-7.535a.956.956,0,0,1,.334-.72L7.765-14.74a1.068,1.068,0,0,1,.7-.26A1.06,1.06,0,0,1,9.227-14.684Z" transform="translate(0 0)"/></clipPath></defs><g class="b" transform="translate(0 15)"><path class="c" d="M18.071,8.5H-5V-20H18.071Z" transform="translate(-1.786 -1.786)"/></g></svg>