<svg xmlns="http://www.w3.org/2000/svg" width="62.386" height="65.904" viewBox="0 0 62.386 65.904">
  <g id="Grupo_4482" data-name="Grupo 4482" transform="translate(603.753 270.635) rotate(180)" opacity="0.21">
    <g id="Grupo_4474" data-name="Grupo 4474">
      <circle id="Elipse_153" data-name="Elipse 153" cx="1.398" cy="1.398" r="1.398" transform="translate(541.617 204.981)" fill="none" stroke="#2e3361" stroke-linecap="round" stroke-linejoin="round" stroke-width="0.5"/>
      <path id="Caminho_3980" data-name="Caminho 3980" d="M543.015,216.721a1.4,1.4,0,1,1,1.4-1.4A1.4,1.4,0,0,1,543.015,216.721Z" fill="none" stroke="#2e3361" stroke-linecap="round" stroke-linejoin="round" stroke-width="0.5"/>
      <circle id="Elipse_154" data-name="Elipse 154" cx="1.398" cy="1.398" r="1.398" transform="translate(541.617 222.87)" fill="none" stroke="#2e3361" stroke-linecap="round" stroke-linejoin="round" stroke-width="0.5"/>
      <path id="Caminho_3981" data-name="Caminho 3981" d="M543.015,234.609a1.4,1.4,0,1,1,1.4-1.4A1.4,1.4,0,0,1,543.015,234.609Z" fill="none" stroke="#2e3361" stroke-linecap="round" stroke-linejoin="round" stroke-width="0.5"/>
      <circle id="Elipse_155" data-name="Elipse 155" cx="1.398" cy="1.398" r="1.398" transform="translate(541.617 240.758)" fill="none" stroke="#2e3361" stroke-linecap="round" stroke-linejoin="round" stroke-width="0.5"/>
      <path id="Caminho_3982" data-name="Caminho 3982" d="M543.015,252.5a1.4,1.4,0,1,1,1.4-1.4A1.4,1.4,0,0,1,543.015,252.5Z" fill="none" stroke="#2e3361" stroke-linecap="round" stroke-linejoin="round" stroke-width="0.5"/>
      <circle id="Elipse_156" data-name="Elipse 156" cx="1.398" cy="1.398" r="1.398" transform="translate(541.617 258.646)" fill="none" stroke="#2e3361" stroke-linecap="round" stroke-linejoin="round" stroke-width="0.5"/>
      <path id="Caminho_3983" data-name="Caminho 3983" d="M543.015,270.385a1.4,1.4,0,1,1,1.4-1.4A1.4,1.4,0,0,1,543.015,270.385Z" fill="none" stroke="#2e3361" stroke-linecap="round" stroke-linejoin="round" stroke-width="0.5"/>
    </g>
    <g id="Grupo_4475" data-name="Grupo 4475">
      <circle id="Elipse_157" data-name="Elipse 157" cx="1.398" cy="1.398" r="1.398" transform="translate(550.059 204.981)" fill="none" stroke="#2e3361" stroke-linecap="round" stroke-linejoin="round" stroke-width="0.5"/>
      <path id="Caminho_3984" data-name="Caminho 3984" d="M551.456,216.721a1.4,1.4,0,1,1,1.4-1.4A1.4,1.4,0,0,1,551.456,216.721Z" fill="none" stroke="#2e3361" stroke-linecap="round" stroke-linejoin="round" stroke-width="0.5"/>
      <circle id="Elipse_158" data-name="Elipse 158" cx="1.398" cy="1.398" r="1.398" transform="translate(550.059 222.87)" fill="none" stroke="#2e3361" stroke-linecap="round" stroke-linejoin="round" stroke-width="0.5"/>
      <path id="Caminho_3985" data-name="Caminho 3985" d="M551.456,234.609a1.4,1.4,0,1,1,1.4-1.4A1.4,1.4,0,0,1,551.456,234.609Z" fill="none" stroke="#2e3361" stroke-linecap="round" stroke-linejoin="round" stroke-width="0.5"/>
      <circle id="Elipse_159" data-name="Elipse 159" cx="1.398" cy="1.398" r="1.398" transform="translate(550.059 240.758)" fill="none" stroke="#2e3361" stroke-linecap="round" stroke-linejoin="round" stroke-width="0.5"/>
      <path id="Caminho_3986" data-name="Caminho 3986" d="M551.456,252.5a1.4,1.4,0,1,1,1.4-1.4A1.4,1.4,0,0,1,551.456,252.5Z" fill="none" stroke="#2e3361" stroke-linecap="round" stroke-linejoin="round" stroke-width="0.5"/>
      <circle id="Elipse_160" data-name="Elipse 160" cx="1.398" cy="1.398" r="1.398" transform="translate(550.059 258.646)" fill="none" stroke="#2e3361" stroke-linecap="round" stroke-linejoin="round" stroke-width="0.5"/>
    </g>
    <g id="Grupo_4476" data-name="Grupo 4476">
      <path id="Caminho_3987" data-name="Caminho 3987" d="M559.9,207.776a1.4,1.4,0,1,1,1.4-1.4A1.4,1.4,0,0,1,559.9,207.776Z" fill="none" stroke="#2e3361" stroke-linecap="round" stroke-linejoin="round" stroke-width="0.5"/>
      <path id="Caminho_3988" data-name="Caminho 3988" d="M559.9,216.721a1.4,1.4,0,1,1,1.4-1.4A1.4,1.4,0,0,1,559.9,216.721Z" fill="none" stroke="#2e3361" stroke-linecap="round" stroke-linejoin="round" stroke-width="0.5"/>
      <path id="Caminho_3989" data-name="Caminho 3989" d="M559.9,225.665a1.4,1.4,0,1,1,1.4-1.4A1.4,1.4,0,0,1,559.9,225.665Z" fill="none" stroke="#2e3361" stroke-linecap="round" stroke-linejoin="round" stroke-width="0.5"/>
      <path id="Caminho_3990" data-name="Caminho 3990" d="M559.9,234.609a1.4,1.4,0,1,1,1.4-1.4A1.4,1.4,0,0,1,559.9,234.609Z" fill="none" stroke="#2e3361" stroke-linecap="round" stroke-linejoin="round" stroke-width="0.5"/>
      <path id="Caminho_3991" data-name="Caminho 3991" d="M559.9,243.553a1.4,1.4,0,1,1,1.4-1.4A1.4,1.4,0,0,1,559.9,243.553Z" fill="none" stroke="#2e3361" stroke-linecap="round" stroke-linejoin="round" stroke-width="0.5"/>
      <path id="Caminho_3992" data-name="Caminho 3992" d="M559.9,252.5a1.4,1.4,0,1,1,1.4-1.4A1.4,1.4,0,0,1,559.9,252.5Z" fill="none" stroke="#2e3361" stroke-linecap="round" stroke-linejoin="round" stroke-width="0.5"/>
    </g>
    <g id="Grupo_4477" data-name="Grupo 4477">
      <circle id="Elipse_161" data-name="Elipse 161" cx="1.398" cy="1.398" r="1.398" transform="translate(566.942 204.981)" fill="none" stroke="#2e3361" stroke-linecap="round" stroke-linejoin="round" stroke-width="0.5"/>
      <path id="Caminho_3993" data-name="Caminho 3993" d="M568.34,216.721a1.4,1.4,0,1,1,1.4-1.4A1.4,1.4,0,0,1,568.34,216.721Z" fill="none" stroke="#2e3361" stroke-linecap="round" stroke-linejoin="round" stroke-width="0.5"/>
      <circle id="Elipse_162" data-name="Elipse 162" cx="1.398" cy="1.398" r="1.398" transform="translate(566.942 222.87)" fill="none" stroke="#2e3361" stroke-linecap="round" stroke-linejoin="round" stroke-width="0.5"/>
      <path id="Caminho_3994" data-name="Caminho 3994" d="M568.34,234.609a1.4,1.4,0,1,1,1.4-1.4A1.4,1.4,0,0,1,568.34,234.609Z" fill="none" stroke="#2e3361" stroke-linecap="round" stroke-linejoin="round" stroke-width="0.5"/>
      <circle id="Elipse_163" data-name="Elipse 163" cx="1.398" cy="1.398" r="1.398" transform="translate(566.942 240.758)" fill="none" stroke="#2e3361" stroke-linecap="round" stroke-linejoin="round" stroke-width="0.5"/>
    </g>
    <g id="Grupo_4478" data-name="Grupo 4478">
      <circle id="Elipse_164" data-name="Elipse 164" cx="1.398" cy="1.398" r="1.398" transform="translate(575.384 204.981)" fill="none" stroke="#2e3361" stroke-linecap="round" stroke-linejoin="round" stroke-width="0.5"/>
      <path id="Caminho_3995" data-name="Caminho 3995" d="M576.781,216.721a1.4,1.4,0,1,1,1.4-1.4A1.4,1.4,0,0,1,576.781,216.721Z" fill="none" stroke="#2e3361" stroke-linecap="round" stroke-linejoin="round" stroke-width="0.5"/>
      <circle id="Elipse_165" data-name="Elipse 165" cx="1.398" cy="1.398" r="1.398" transform="translate(575.384 222.87)" fill="none" stroke="#2e3361" stroke-linecap="round" stroke-linejoin="round" stroke-width="0.5"/>
      <path id="Caminho_3996" data-name="Caminho 3996" d="M576.781,234.609a1.4,1.4,0,1,1,1.4-1.4A1.4,1.4,0,0,1,576.781,234.609Z" fill="none" stroke="#2e3361" stroke-linecap="round" stroke-linejoin="round" stroke-width="0.5"/>
    </g>
    <g id="Grupo_4479" data-name="Grupo 4479">
      <circle id="Elipse_166" data-name="Elipse 166" cx="1.398" cy="1.398" r="1.398" transform="translate(583.825 204.981)" fill="none" stroke="#2e3361" stroke-linecap="round" stroke-linejoin="round" stroke-width="0.5"/>
      <path id="Caminho_3997" data-name="Caminho 3997" d="M585.223,216.721a1.4,1.4,0,1,1,1.4-1.4A1.4,1.4,0,0,1,585.223,216.721Z" fill="none" stroke="#2e3361" stroke-linecap="round" stroke-linejoin="round" stroke-width="0.5"/>
      <circle id="Elipse_167" data-name="Elipse 167" cx="1.398" cy="1.398" r="1.398" transform="translate(583.825 222.87)" fill="none" stroke="#2e3361" stroke-linecap="round" stroke-linejoin="round" stroke-width="0.5"/>
    </g>
    <g id="Grupo_4480" data-name="Grupo 4480">
      <circle id="Elipse_168" data-name="Elipse 168" cx="1.398" cy="1.398" r="1.398" transform="translate(592.267 204.981)" fill="none" stroke="#2e3361" stroke-linecap="round" stroke-linejoin="round" stroke-width="0.5"/>
      <path id="Caminho_3998" data-name="Caminho 3998" d="M593.664,216.721a1.4,1.4,0,1,1,1.4-1.4A1.4,1.4,0,0,1,593.664,216.721Z" fill="none" stroke="#2e3361" stroke-linecap="round" stroke-linejoin="round" stroke-width="0.5"/>
    </g>
    <g id="Grupo_4481" data-name="Grupo 4481">
      <path id="Caminho_3999" data-name="Caminho 3999" d="M602.106,207.776a1.4,1.4,0,1,1,1.4-1.4A1.4,1.4,0,0,1,602.106,207.776Z" fill="none" stroke="#2e3361" stroke-linecap="round" stroke-linejoin="round" stroke-width="0.5"/>
    </g>
  </g>
</svg>
