<svg xmlns="http://www.w3.org/2000/svg" width="136.387" height="29.541" viewBox="0 0 136.387 29.541">
  <g id="Grupo_4580" data-name="Grupo 4580" transform="translate(-55 -115.836)">
    <g id="Grupo_3529" data-name="Grupo 3529" transform="translate(55 115.836)">
      <path id="Caminho_2474" data-name="Caminho 2474" d="M11.354-56.2a8.394,8.394,0,0,0-8.747,8.772,8.394,8.394,0,0,0,8.772,8.747A8.423,8.423,0,0,0,19.66-44.61v-3.9H10.545v3.087h5.317A4.121,4.121,0,0,1,11.7-42.38c-3.014,0-4.827-1.862-4.827-5.047,0-2.989,1.789-4.9,4.484-4.9a3.6,3.6,0,0,1,3.381,1.764h4.631C18.459-54.092,15.47-56.2,11.354-56.2ZM26.177-48.31v-4.312h2.279c1.666,0,2.377.833,2.377,2.156s-.711,2.156-2.377,2.156ZM35.1-50.466C35.1-53.626,32.989-56,28.775-56H21.988v17.2h4.19v-6.174h2.6C33.16-44.977,35.1-47.623,35.1-50.466Zm11.271.049c0,1.348-.735,2.156-2.3,2.156h-2.6v-4.263h2.6C45.632-52.524,46.367-51.691,46.367-50.417ZM37.277-56v17.2h4.19V-45.3h1L46.048-38.8h4.729l-3.969-6.811a5.006,5.006,0,0,0,3.822-4.974c0-2.989-2.107-5.415-6.321-5.415Zm32.905,8.551a8.578,8.578,0,0,0-8.8-8.8,8.633,8.633,0,0,0-8.845,8.8,8.653,8.653,0,0,0,8.845,8.821A8.613,8.613,0,0,0,70.182-47.452Zm-13.353,0c0-3.063,1.764-5,4.557-5,2.744,0,4.533,1.936,4.533,5,0,3.014-1.789,5-4.533,5C58.593-42.454,56.829-44.438,56.829-47.452Zm14.97.024a8.336,8.336,0,0,0,8.649,8.747,7.966,7.966,0,0,0,8.159-6H84a3.789,3.789,0,0,1-3.6,2.205c-2.573,0-4.337-1.911-4.337-4.949s1.764-4.949,4.337-4.949A3.789,3.789,0,0,1,84-50.172h4.606A7.986,7.986,0,0,0,80.448-56.2,8.356,8.356,0,0,0,71.8-47.427ZM101.715-56H91.18v17.2h10.536V-42.16H95.369v-3.773h5.611v-3.234H95.369v-3.479h6.346Zm15.215,12.079c0-5.758-8.5-4.41-8.5-7.4a1.525,1.525,0,0,1,1.764-1.568,1.862,1.862,0,0,1,1.985,1.789h4.533c-.172-3.283-2.7-5.145-6.444-5.145-3.6,0-6.272,1.813-6.272,5.072-.049,6.1,8.551,4.386,8.551,7.571,0,1-.784,1.617-2.009,1.617a1.972,1.972,0,0,1-2.132-1.96h-4.459c.123,3.479,3.014,5.317,6.713,5.317C114.677-38.631,116.931-41.033,116.931-43.924Zm15.068,0c0-5.758-8.5-4.41-8.5-7.4a1.525,1.525,0,0,1,1.764-1.568,1.862,1.862,0,0,1,1.985,1.789h4.533c-.172-3.283-2.7-5.145-6.444-5.145-3.6,0-6.272,1.813-6.272,5.072-.049,6.1,8.551,4.386,8.551,7.571,0,1-.784,1.617-2.009,1.617a1.972,1.972,0,0,1-2.132-1.96h-4.459c.123,3.479,3.014,5.317,6.713,5.317C129.745-38.631,132-41.033,132-43.924Z" transform="translate(4.388 63.355)" fill="#b8b9c4"/>
      <g id="Layer_2" data-name="Layer 2" transform="translate(0 0)">
        <g id="Layer_1" data-name="Layer 1" transform="translate(0 0)">
          <path id="Caminho_2466" data-name="Caminho 2466" d="M16.993,62H12a16.081,16.081,0,0,0,4.3,10.334l3.52-3.511A11.1,11.1,0,0,1,16.993,62Z" transform="translate(-12 -45.257)" fill="#b8b9c4"/>
          <path id="Caminho_2468" data-name="Caminho 2468" d="M39.634,12.972a11.109,11.109,0,0,1,7.443,2.853l3.511-3.52a16.128,16.128,0,0,0-21.909,0l3.511,3.52a11.109,11.109,0,0,1,7.443-2.853Z" transform="translate(-23.507 -8.014)" fill="#b8b9c4"/>
          <path id="Caminho_2469" data-name="Caminho 2469" d="M19.816,28.191,16.3,24.68A16.081,16.081,0,0,0,12,35.014h4.993a11.1,11.1,0,0,1,2.822-6.823Z" transform="translate(-12 -19.511)" fill="#b8b9c4"/>
        </g>
      </g>
    </g>
    <path id="Caminho_2475" data-name="Caminho 2475" d="M2.5-7.935c0-.945-1.37-.581-1.37-1.165,0-.249.19-.368.435-.361a.4.4,0,0,1,.435.342h.469a.789.789,0,0,0-.882-.7c-.528,0-.889.283-.889.737,0,.953,1.373.547,1.373,1.172,0,.22-.167.38-.465.38a.415.415,0,0,1-.461-.383H.7c0,.458.4.741.916.741A.8.8,0,0,0,2.5-7.935ZM5.147-7.2h.424V-9.789H5.147Zm4.868-.733c0-.945-1.37-.581-1.37-1.165,0-.249.19-.368.435-.361a.4.4,0,0,1,.435.342h.469a.789.789,0,0,0-.882-.7c-.528,0-.889.283-.889.737,0,.953,1.373.547,1.373,1.172,0,.22-.167.38-.465.38a.415.415,0,0,1-.461-.383H8.206c0,.458.4.741.916.741A.8.8,0,0,0,10.015-7.935Zm2.508-1.507h.692V-7.2h.424v-2.24h.689v-.346H12.524Zm5.8-.35H16.9V-7.2h1.429v-.346h-1v-.793h.893v-.346h-.893v-.759h1ZM20.987-7.2h.424V-8.974L22.2-7.2H22.5l.789-1.772V-7.2h.424V-9.789h-.454l-.9,2.028-.908-2.028h-.458Zm7.168,0H28.6l-.927-2.59h-.491L26.257-7.2H26.7l.186-.528h1.083Zm-.305-.875H27l.424-1.2ZM35.1-9.789h-.845V-7.2H35.1a1.241,1.241,0,0,0,1.373-1.284A1.253,1.253,0,0,0,35.1-9.789Zm-.421,2.24V-9.443H35.1a.863.863,0,0,1,.938.956.851.851,0,0,1-.938.938Zm5.784-2.244H39.03V-7.2h1.429v-.346h-1v-.793h.893v-.346h-.893v-.759h1Zm6.948-.03A1.294,1.294,0,0,0,46.086-8.5,1.292,1.292,0,0,0,47.408-7.18a1.275,1.275,0,0,0,1.28-1.109V-8.62H47.262v.339h.971a.783.783,0,0,1-.826.718.868.868,0,0,1-.886-.938.865.865,0,0,1,.886-.934.735.735,0,0,1,.692.391h.51A1.233,1.233,0,0,0,47.408-9.822Zm5.266.03H51.245V-7.2h1.429v-.346h-1v-.793h.893v-.346h-.893v-.759h1ZM57.08-7.935c0-.945-1.37-.581-1.37-1.165,0-.249.19-.368.435-.361a.4.4,0,0,1,.435.342h.469a.789.789,0,0,0-.882-.7c-.528,0-.889.283-.889.737,0,.953,1.373.547,1.373,1.172,0,.22-.167.38-.465.38a.415.415,0,0,1-.461-.383h-.454c0,.458.4.741.916.741A.8.8,0,0,0,57.08-7.935Zm2.508-1.507h.692V-7.2h.424v-2.24h.689v-.346H59.589ZM65.707-7.2h.447l-.927-2.59h-.491L63.809-7.2h.443l.186-.528h1.083ZM64.375-10h.238c.015-.108.078-.16.16-.16.149,0,.231.167.432.167s.38-.141.421-.435h-.238a.157.157,0,0,1-.16.156c-.149,0-.231-.164-.432-.164S64.416-10.3,64.375-10ZM65.4-8.077h-.845l.424-1.2ZM71.2-8.5a1.289,1.289,0,0,0-1.321-1.321A1.294,1.294,0,0,0,68.554-8.5a1.3,1.3,0,0,0,1.321,1.325A1.29,1.29,0,0,0,71.2-8.5Zm-2.207,0a.87.87,0,0,1,.886-.949.87.87,0,0,1,.886.949.876.876,0,0,1-.886.956A.876.876,0,0,1,68.99-8.5Zm8.716-1.288h-.845V-7.2h.845A1.241,1.241,0,0,0,79.08-8.486,1.253,1.253,0,0,0,77.706-9.789Zm-.421,2.24V-9.443h.421a.863.863,0,0,1,.938.956.851.851,0,0,1-.938.938Zm5.784-2.244H81.64V-7.2h1.429v-.346h-1v-.793h.893v-.346h-.893v-.759h1ZM89.262-8.6v-.845h.469c.331,0,.48.156.48.424s-.149.421-.48.421Zm1.384-.421c0-.421-.3-.77-.916-.77h-.893V-7.2h.424v-1.05h.469C90.4-8.252,90.647-8.65,90.647-9.018Zm3.919,0c0,.257-.149.439-.48.439h-.469v-.867h.469C94.417-9.443,94.566-9.275,94.566-9.015Zm-1.373-.774V-7.2h.424V-8.237h.324l.6,1.035h.506L94.4-8.274a.736.736,0,0,0,.6-.741c0-.421-.3-.774-.916-.774ZM100.185-8.5a1.289,1.289,0,0,0-1.321-1.321A1.294,1.294,0,0,0,97.543-8.5a1.3,1.3,0,0,0,1.321,1.325A1.29,1.29,0,0,0,100.185-8.5Zm-2.207,0a.87.87,0,0,1,.886-.949.87.87,0,0,1,.886.949.876.876,0,0,1-.886.956A.876.876,0,0,1,97.979-8.5Zm4.622,0a1.292,1.292,0,0,0,1.321,1.321,1.23,1.23,0,0,0,1.2-.774h-.51a.723.723,0,0,1-.692.406.873.873,0,0,1-.886-.953.87.87,0,0,1,.886-.949.723.723,0,0,1,.692.406h.51a1.233,1.233,0,0,0-1.2-.778A1.294,1.294,0,0,0,102.6-8.5Zm6.587-1.291h-1.429V-7.2h1.429v-.346h-1v-.793h.893v-.346h-.893v-.759h1Zm4.407,1.857c0-.945-1.37-.581-1.37-1.165,0-.249.19-.368.435-.361a.4.4,0,0,1,.435.342h.469a.789.789,0,0,0-.882-.7c-.528,0-.889.283-.889.737,0,.953,1.373.547,1.373,1.172,0,.22-.167.38-.465.38a.415.415,0,0,1-.462-.383h-.454c0,.458.4.741.916.741A.8.8,0,0,0,113.595-7.935Zm4.388,0c0-.945-1.37-.581-1.37-1.165,0-.249.19-.368.435-.361a.4.4,0,0,1,.435.342h.469a.789.789,0,0,0-.882-.7c-.528,0-.89.283-.89.737,0,.953,1.373.547,1.373,1.172,0,.22-.167.38-.465.38a.415.415,0,0,1-.461-.383h-.454c0,.458.4.741.916.741A.8.8,0,0,0,117.983-7.935Zm5.143-.566a1.289,1.289,0,0,0-1.321-1.321A1.294,1.294,0,0,0,120.484-8.5a1.3,1.3,0,0,0,1.321,1.325A1.29,1.29,0,0,0,123.126-8.5Zm-2.207,0a.87.87,0,0,1,.886-.949.87.87,0,0,1,.886.949.876.876,0,0,1-.886.956A.876.876,0,0,1,120.919-8.5Zm6.509.566c0-.945-1.37-.581-1.37-1.165,0-.249.19-.368.435-.361a.4.4,0,0,1,.435.342h.469a.789.789,0,0,0-.882-.7c-.528,0-.89.283-.89.737,0,.953,1.373.547,1.373,1.172,0,.22-.167.38-.465.38a.415.415,0,0,1-.462-.383h-.454c0,.458.4.741.916.741A.8.8,0,0,0,127.429-7.935Z" transform="translate(62.584 152.552)" fill="#b8b9c4"/>
  </g>
</svg>
