<svg xmlns="http://www.w3.org/2000/svg" width="223.91" height="48.498" viewBox="0 0 223.91 48.498"><defs><style>.a{fill:#2c2c2c;}.b{fill:#757575;}.c{fill:#2e3361;}</style></defs><g transform="translate(-55 -115.836)"><g transform="translate(55 115.836)"><path class="a" d="M16.967-56.168c-8.447,0-14.36,5.953-14.36,14.4s5.953,14.36,14.4,14.36a13.829,13.829,0,0,0,13.6-9.734v-6.4H15.64v5.068h8.729a6.765,6.765,0,0,1-6.838,4.988c-4.948,0-7.924-3.057-7.924-8.286,0-4.907,2.936-8.045,7.361-8.045a5.914,5.914,0,0,1,5.551,2.9h7.6C28.632-52.708,23.725-56.168,16.967-56.168ZM41.3-43.215v-7.08h3.741c2.735,0,3.9,1.368,3.9,3.54s-1.167,3.54-3.9,3.54Zm14.642-3.54c0-5.189-3.459-9.091-10.378-9.091H34.425v28.238H41.3V-37.745h4.264C52.767-37.745,55.945-42.089,55.945-46.755Zm18.5.08c0,2.212-1.207,3.54-3.781,3.54H66.4v-7h4.264C73.241-50.134,74.448-48.766,74.448-46.675ZM59.525-55.846v28.238H66.4V-38.268h1.649l5.873,10.659h7.763L75.172-38.791a8.219,8.219,0,0,0,6.275-8.166c0-4.907-3.459-8.89-10.378-8.89Zm54.021,14.038A14.083,14.083,0,0,0,99.106-56.248,14.173,14.173,0,0,0,84.585-41.807,14.206,14.206,0,0,0,99.106-27.327,14.14,14.14,0,0,0,113.546-41.807Zm-21.922,0c0-5.028,2.9-8.206,7.482-8.206,4.505,0,7.442,3.178,7.442,8.206,0,4.948-2.936,8.206-7.442,8.206C94.52-33.6,91.624-36.86,91.624-41.807Zm24.577.04c0,8.447,5.873,14.36,14.2,14.36,6.717,0,11.786-3.741,13.395-9.855h-7.562a6.221,6.221,0,0,1-5.913,3.62c-4.224,0-7.12-3.138-7.12-8.125s2.9-8.125,7.12-8.125a6.221,6.221,0,0,1,5.913,3.62h7.562c-1.609-6.114-6.677-9.9-13.395-9.9C122.074-56.168,116.2-50.214,116.2-41.767Zm49.114-14.079h-17.3v28.238h17.3v-5.511H154.9v-6.195h9.211v-5.31H154.9v-5.712h10.418Zm24.979,19.831c0-9.453-13.958-7.24-13.958-12.148,0-1.77,1.247-2.615,2.9-2.574a3.057,3.057,0,0,1,3.258,2.936h7.442c-.282-5.39-4.425-8.447-10.579-8.447-5.913,0-10.3,2.977-10.3,8.326-.08,10.016,14.038,7.2,14.038,12.429,0,1.649-1.287,2.655-3.3,2.655a3.238,3.238,0,0,1-3.5-3.218h-7.321c.2,5.712,4.948,8.729,11.022,8.729C186.594-27.327,190.294-31.269,190.294-36.015Zm24.738,0c0-9.453-13.958-7.24-13.958-12.148,0-1.77,1.247-2.615,2.9-2.574a3.057,3.057,0,0,1,3.258,2.936h7.442c-.282-5.39-4.425-8.447-10.579-8.447-5.913,0-10.3,2.977-10.3,8.326-.08,10.016,14.038,7.2,14.038,12.429,0,1.649-1.287,2.655-3.3,2.655a3.238,3.238,0,0,1-3.5-3.218h-7.321c.2,5.712,4.948,8.729,11.022,8.729C211.332-27.327,215.033-31.269,215.033-36.015Z" transform="translate(8.877 67.916)"/><g transform="translate(0 0)"><g transform="translate(0 0)"><path class="b" d="M20.2,62H12a26.4,26.4,0,0,0,7.052,16.966L24.831,73.2A18.218,18.218,0,0,1,20.2,62Z" transform="translate(-12 -34.512)"/><path class="c" d="M46.664,16.154a18.239,18.239,0,0,1,12.22,4.684l5.764-5.779a26.477,26.477,0,0,0-35.968,0l5.764,5.779a18.239,18.239,0,0,1,12.22-4.684Z" transform="translate(-20.187 -8.014)"/><path class="a" d="M24.831,30.444,19.052,24.68A26.4,26.4,0,0,0,12,41.646h8.2a18.218,18.218,0,0,1,4.633-11.2Z" transform="translate(-12 -16.194)"/></g></g></g><path class="b" d="M3.665-6.328c0-1.552-2.248-.953-2.248-1.912,0-.409.312-.6.715-.593a.664.664,0,0,1,.715.562h.77A1.3,1.3,0,0,0,2.169-9.426c-.868,0-1.46.464-1.46,1.21,0,1.564,2.255.9,2.255,1.925,0,.36-.275.623-.764.623A.681.681,0,0,1,1.441-6.3H.7c0,.752.654,1.216,1.5,1.216A1.319,1.319,0,0,0,3.665-6.328ZM8-5.124h.7V-9.371H8ZM16-6.328c0-1.552-2.248-.953-2.248-1.912,0-.409.312-.6.715-.593a.664.664,0,0,1,.715.562h.77A1.3,1.3,0,0,0,14.5-9.426c-.868,0-1.46.464-1.46,1.21,0,1.564,2.255.9,2.255,1.925,0,.36-.275.623-.764.623a.681.681,0,0,1-.758-.629h-.745c0,.752.654,1.216,1.5,1.216A1.319,1.319,0,0,0,16-6.328ZM20.114-8.8H21.25v3.678h.7V-8.8h1.13v-.568H20.114Zm9.526-.574H27.293v4.253h2.346v-.568H27.99v-1.3h1.466v-.568H27.99V-8.809h1.65Zm4.369,4.253h.7V-8.033l1.3,2.908h.483l1.3-2.908v2.908h.7V-9.371h-.745L36.25-6.041,34.76-9.371h-.752Zm11.768,0h.733L44.988-9.377h-.807L42.66-5.124h.727l.306-.868H45.47Zm-.5-1.436H43.888l.7-1.974Zm11.9-2.811H55.784v4.246h1.387a2.037,2.037,0,0,0,2.255-2.108A2.056,2.056,0,0,0,57.171-9.371Zm-.69,3.678V-8.8h.69a1.417,1.417,0,0,1,1.54,1.57,1.4,1.4,0,0,1-1.54,1.54Zm9.5-3.684H63.63v4.253h2.346v-.568h-1.65v-1.3h1.466v-.568H64.326V-8.809h1.65Zm11.407-.049a2.124,2.124,0,0,0-2.169,2.169,2.12,2.12,0,0,0,2.169,2.169,2.094,2.094,0,0,0,2.1-1.821v-.544h-2.34V-6.9H78.74a1.286,1.286,0,0,1-1.356,1.179,1.426,1.426,0,0,1-1.454-1.54A1.421,1.421,0,0,1,77.383-8.79a1.207,1.207,0,0,1,1.136.642h.837A2.024,2.024,0,0,0,77.383-9.426Zm8.646.049H83.683v4.253h2.346v-.568h-1.65v-1.3h1.466v-.568H84.379V-8.809h1.65Zm7.234,3.049c0-1.552-2.248-.953-2.248-1.912,0-.409.312-.6.715-.593a.664.664,0,0,1,.715.562h.77a1.3,1.3,0,0,0-1.448-1.155c-.868,0-1.46.464-1.46,1.21,0,1.564,2.255.9,2.255,1.925,0,.36-.275.623-.764.623a.681.681,0,0,1-.758-.629h-.745c0,.752.654,1.216,1.5,1.216A1.319,1.319,0,0,0,93.263-6.328ZM97.381-8.8h1.136v3.678h.7V-8.8h1.13v-.568H97.381Zm10.045,3.678h.733l-1.521-4.253h-.807L104.31-5.124h.727l.306-.868h1.778Zm-2.187-4.6h.391c.024-.177.128-.263.263-.263.244,0,.379.275.709.275.354,0,.623-.232.69-.715H106.9a.258.258,0,0,1-.263.257c-.244,0-.379-.269-.709-.269C105.575-10.44,105.306-10.208,105.239-9.725Zm1.686,3.165h-1.387l.7-1.974Zm9.513-.7a2.117,2.117,0,0,0-2.169-2.169A2.124,2.124,0,0,0,112.1-7.257a2.126,2.126,0,0,0,2.169,2.175A2.118,2.118,0,0,0,116.439-7.257Zm-3.623,0a1.428,1.428,0,0,1,1.454-1.558,1.428,1.428,0,0,1,1.454,1.558,1.438,1.438,0,0,1-1.454,1.57A1.438,1.438,0,0,1,112.815-7.257Zm14.31-2.114h-1.387v4.246h1.387a2.037,2.037,0,0,0,2.255-2.108A2.056,2.056,0,0,0,127.125-9.371Zm-.69,3.678V-8.8h.69a1.417,1.417,0,0,1,1.54,1.57,1.4,1.4,0,0,1-1.54,1.54Zm9.5-3.684h-2.346v4.253h2.346v-.568h-1.65v-1.3h1.466v-.568H134.28V-8.809h1.65ZM146.1-7.416V-8.8h.77c.544,0,.788.257.788.7s-.244.69-.788.69Zm2.273-.69c0-.69-.495-1.265-1.5-1.265H145.4v4.246h.7V-6.847h.77C147.973-6.847,148.37-7.5,148.37-8.106ZM154.8-8.1c0,.422-.244.721-.788.721h-.77V-8.8h.77C154.559-8.8,154.8-8.528,154.8-8.1Zm-2.255-1.271v4.246h.7v-1.7h.532l.978,1.7h.831l-1.051-1.76a1.209,1.209,0,0,0,.984-1.216c0-.69-.495-1.271-1.5-1.271ZM164.03-7.257a2.117,2.117,0,0,0-2.169-2.169,2.124,2.124,0,0,0-2.169,2.169,2.125,2.125,0,0,0,2.169,2.175A2.118,2.118,0,0,0,164.03-7.257Zm-3.623,0a1.428,1.428,0,0,1,1.454-1.558,1.428,1.428,0,0,1,1.454,1.558,1.438,1.438,0,0,1-1.454,1.57A1.438,1.438,0,0,1,160.407-7.257Zm7.589,0a2.12,2.12,0,0,0,2.169,2.169,2.019,2.019,0,0,0,1.974-1.271H171.3a1.186,1.186,0,0,1-1.136.666,1.433,1.433,0,0,1-1.454-1.564,1.428,1.428,0,0,1,1.454-1.558,1.186,1.186,0,0,1,1.136.666h.837a2.024,2.024,0,0,0-1.974-1.277A2.124,2.124,0,0,0,168-7.257Zm10.815-2.12h-2.346v4.253h2.346v-.568h-1.65v-1.3h1.466v-.568H177.16V-8.809h1.65Zm7.234,3.049c0-1.552-2.249-.953-2.249-1.912,0-.409.312-.6.715-.593a.664.664,0,0,1,.715.562H186a1.3,1.3,0,0,0-1.448-1.155c-.868,0-1.46.464-1.46,1.21,0,1.564,2.255.9,2.255,1.925,0,.36-.275.623-.764.623a.682.682,0,0,1-.758-.629h-.745c0,.752.654,1.216,1.5,1.216A1.319,1.319,0,0,0,186.044-6.328Zm7.2,0c0-1.552-2.249-.953-2.249-1.912,0-.409.312-.6.715-.593a.664.664,0,0,1,.715.562h.77a1.3,1.3,0,0,0-1.448-1.155c-.868,0-1.46.464-1.46,1.21,0,1.564,2.255.9,2.255,1.925,0,.36-.275.623-.764.623a.681.681,0,0,1-.758-.629h-.745c0,.752.654,1.216,1.5,1.216A1.319,1.319,0,0,0,193.248-6.328Zm8.444-.929a2.117,2.117,0,0,0-2.169-2.169,2.124,2.124,0,0,0-2.169,2.169,2.125,2.125,0,0,0,2.169,2.175A2.118,2.118,0,0,0,201.692-7.257Zm-3.623,0a1.428,1.428,0,0,1,1.454-1.558,1.428,1.428,0,0,1,1.454,1.558,1.438,1.438,0,0,1-1.454,1.57A1.438,1.438,0,0,1,198.069-7.257Zm10.686.929c0-1.552-2.249-.953-2.249-1.912,0-.409.312-.6.715-.593a.664.664,0,0,1,.715.562h.77a1.3,1.3,0,0,0-1.448-1.155c-.868,0-1.46.464-1.46,1.21,0,1.564,2.255.9,2.255,1.925,0,.36-.275.623-.764.623a.681.681,0,0,1-.758-.629h-.745c0,.752.654,1.216,1.5,1.216A1.319,1.319,0,0,0,208.755-6.328Z" transform="translate(67.897 169.415)"/></g></svg>