<svg xmlns="http://www.w3.org/2000/svg" xmlns:xlink="http://www.w3.org/1999/xlink" width="56.154" height="20.42" viewBox="0 0 56.154 20.42">
  <defs>
    <clipPath id="clip-path">
      <path id="Caminho_2356" data-name="Caminho 2356" d="M77.413,74.86a2.553,2.553,0,0,0-2.553,2.553V91.671l.749-.741L90.93,75.609l.745-.749Z" transform="translate(-74.86 -74.86)" fill="none"/>
    </clipPath>
    <linearGradient id="linear-gradient" x1="0.987" y1="0.497" x2="0.115" y2="0.376" gradientUnits="objectBoundingBox">
      <stop offset="0" stop-color="#00b5e2"/>
      <stop offset="1" stop-color="#006eb3"/>
    </linearGradient>
    <clipPath id="clip-path-2">
      <path id="Caminho_2357" data-name="Caminho 2357" d="M107.02,204.56h13.2l-6.6-6.6Z" transform="translate(-107.02 -197.96)" fill="none"/>
    </clipPath>
    <linearGradient id="linear-gradient-2" x1="1.086" y1="0.71" x2="0.046" y2="0.594" xlink:href="#linear-gradient"/>
    <clipPath id="clip-path-3">
      <path id="Caminho_2358" data-name="Caminho 2358" d="M197.96,113.62l6.6,6.6v-13.2Z" transform="translate(-197.96 -107.02)" fill="none"/>
    </clipPath>
    <linearGradient id="linear-gradient-3" x1="0.98" y1="0.323" x2="0.325" y2="0.736" xlink:href="#linear-gradient"/>
  </defs>
  <g id="Camada_2" data-name="Camada 2" transform="translate(-74.86 -74.86)">
    <g id="Camada_1" data-name="Camada 1" transform="translate(74.86 74.86)">
      <path id="Caminho_2352" data-name="Caminho 2352" d="M310.363,99.787h-2.927v13.127h-2.289V99.787H302.22V97.6h8.143Z" transform="translate(-276.695 -95.047)" fill="#012169"/>
      <path id="Caminho_2353" data-name="Caminho 2353" d="M382.88,109.784v-2.222h2.289v2.222a.944.944,0,0,0,1,1.01.962.962,0,0,0,1.019-1.01v-1.777c0-1.925-4.266-2.115-4.266-5.521V100.71a3.26,3.26,0,0,1,6.514,0V102.7h-2.289v-2.01a.931.931,0,0,0-.978-.973.9.9,0,0,0-.958.973v1.522c0,1.947,4.266,2.133,4.266,5.543v2.031a3.3,3.3,0,0,1-6.6,0" transform="translate(-348.3 -95.047)" fill="#012169"/>
      <path id="Caminho_2354" data-name="Caminho 2354" d="M449.77,109.784V100.71a3.293,3.293,0,0,1,6.575,0V102.7h-2.283V100.73a1,1,0,1,0-2,0v9.054a1,1,0,1,0,2,0v-2.222h2.289v2.222a3.292,3.292,0,0,1-6.575,0" transform="translate(-407.681 -95.047)" fill="#012169"/>
      <path id="Caminho_2355" data-name="Caminho 2355" d="M516.47,109.784V100.71a3.293,3.293,0,0,1,6.577,0v9.074a3.292,3.292,0,0,1-6.577,0m4.287,0V100.73a1,1,0,1,0-2,0v9.054a1,1,0,1,0,2,0" transform="translate(-466.892 -95.047)" fill="#012169"/>
      <g id="Grupo_3366" data-name="Grupo 3366" clip-path="url(#clip-path)">
        <rect id="Retângulo_3941" data-name="Retângulo 3941" width="23.771" height="23.771" transform="translate(-8.405 8.405) rotate(-45)" fill="url(#linear-gradient)"/>
      </g>
      <g id="Grupo_3367" data-name="Grupo 3367" transform="translate(3.61 13.82)" clip-path="url(#clip-path-2)">
        <rect id="Retângulo_3942" data-name="Retângulo 3942" width="14" height="14" transform="translate(-3.299 3.3) rotate(-45)" fill="url(#linear-gradient-2)"/>
      </g>
      <g id="Grupo_3368" data-name="Grupo 3368" transform="translate(13.82 3.61)" clip-path="url(#clip-path-3)">
        <rect id="Retângulo_3943" data-name="Retângulo 3943" width="14" height="14" transform="translate(-6.598 6.6) rotate(-45)" fill="url(#linear-gradient-3)"/>
      </g>
    </g>
  </g>
</svg>
