<svg xmlns="http://www.w3.org/2000/svg" width="12.436" height="15.176" viewBox="0 0 12.436 15.176">
  <g id="text-line-form" transform="translate(0.25 0.25)">
    <g id="Grupo_19" data-name="Grupo 19" transform="translate(0)">
      <path id="Caminho_29" data-name="Caminho 29" d="M51.6.587A.589.589,0,0,0,51.016,0H40.254a.589.589,0,0,0-.587.587v13.5a.589.589,0,0,0,.587.587H51.016a.589.589,0,0,0,.587-.587V.587Zm-10.762.587h9.588V13.5H40.841Z" transform="translate(-39.667)" fill="#2e3361" stroke="#2e3361" stroke-width="0.5"/>
      <path id="Caminho_30" data-name="Caminho 30" d="M124.87,99.167h-5.283a.587.587,0,0,0,0,1.174h5.283a.587.587,0,0,0,0-1.174Z" transform="translate(-116.261 -95.743)" fill="#2e3361" stroke="#2e3361" stroke-width="0.5"/>
      <path id="Caminho_31" data-name="Caminho 31" d="M124.87,189.833h-5.283a.587.587,0,1,0,0,1.174h5.283a.587.587,0,1,0,0-1.174Z" transform="translate(-116.261 -183.278)" fill="#2e3361" stroke="#2e3361" stroke-width="0.5"/>
      <path id="Caminho_32" data-name="Caminho 32" d="M124.87,286.167h-5.283a.587.587,0,1,0,0,1.174h5.283a.587.587,0,1,0,0-1.174Z" transform="translate(-116.261 -276.285)" fill="#2e3361" stroke="#2e3361" stroke-width="0.5"/>
    </g>
  </g>
</svg>
