<svg xmlns="http://www.w3.org/2000/svg" width="14.576" height="14.563" viewBox="0 0 14.576 14.563">
  <g id="ic-actions-settings" transform="translate(-1.196 -1.216)">
    <path id="Caminho_37" data-name="Caminho 37" d="M7.463,2.892l.059-.143a1.3,1.3,0,0,1,2.426.1L9.993,3a1.3,1.3,0,0,0,1.743.806l.137-.059a1.3,1.3,0,0,1,1.645,1.788l-.072.137A1.3,1.3,0,0,0,14.1,7.47l.143.059a1.3,1.3,0,0,1-.1,2.426l-.15.046a1.3,1.3,0,0,0-.819,1.743l.059.137a1.3,1.3,0,0,1-1.788,1.645l-.137-.072a1.3,1.3,0,0,0-1.795.65l-.059.143a1.3,1.3,0,0,1-2.426-.1l-.046-.15a1.3,1.3,0,0,0-1.743-.819l-.137.059a1.3,1.3,0,0,1-1.645-1.788l.072-.137a1.3,1.3,0,0,0-.65-1.795l-.143-.059a1.3,1.3,0,0,1,.1-2.426l.15-.046A1.3,1.3,0,0,0,3.8,5.24L3.744,5.1A1.3,1.3,0,0,1,5.532,3.471l.137.072a1.3,1.3,0,0,0,1.795-.65Z" transform="translate(0 0)" fill="none" stroke="#2e3361" stroke-linecap="round" stroke-linejoin="bevel" stroke-width="1.5" fill-rule="evenodd"/>
    <circle id="Elipse_16" data-name="Elipse 16" cx="2.543" cy="2.543" r="2.543" transform="translate(5.942 5.949)" fill="none" stroke="#2e3361" stroke-linecap="round" stroke-linejoin="bevel" stroke-width="1.5"/>
  </g>
</svg>
